<svg width="48" height="48" viewBox="0 0 48 48" fill="none" xmlns="http://www.w3.org/2000/svg">
<path fill-rule="evenodd" clip-rule="evenodd" d="M13.4499 13.08C11.7909 14.7145 10.5228 16.7028 9.74024 18.8963C8.95768 21.0898 8.68093 23.4317 8.93067 25.7472C8.95391 26.0582 8.85515 26.3661 8.6553 26.6055C8.45546 26.845 8.17023 26.9972 7.86007 27.03C7.5499 27.0628 7.23916 26.9735 6.9937 26.7811C6.74823 26.5886 6.58732 26.3082 6.54507 25.9992C6.25702 23.3249 6.57688 20.62 7.48077 18.0866C8.38466 15.5533 9.84922 13.2568 11.7651 11.3688C18.8139 4.41601 30.1851 4.52881 37.1619 11.604C44.1387 18.6792 44.0931 30.048 37.0419 37.0008C33.7774 40.2242 29.3961 42.0654 24.8091 42.1416C23.0747 42.1734 21.3448 41.9544 19.6731 41.4912C19.3663 41.4066 19.1057 41.2035 18.9486 40.9267C18.7915 40.6499 18.7508 40.322 18.8355 40.0152C18.9201 39.7084 19.1232 39.4478 19.4 39.2907C19.6768 39.1336 20.0047 39.0929 20.3115 39.1776C21.7613 39.5794 23.2616 39.7694 24.7659 39.7416C28.7379 39.6792 32.5323 38.0851 35.3571 35.292C41.4555 29.2776 41.5059 19.428 35.4531 13.2888C29.4003 7.14961 19.5483 7.06561 13.4499 13.08Z" fill="#9698A4"/>
<path fill-rule="evenodd" clip-rule="evenodd" d="M8.62569 27.2712C8.52074 27.3888 8.39366 27.4845 8.25171 27.553C8.10976 27.6214 7.95572 27.6612 7.79838 27.6701C7.64103 27.6791 7.48348 27.6569 7.3347 27.6049C7.18593 27.5529 7.04885 27.4722 6.93129 27.3672L2.80329 23.6952C2.67639 23.5933 2.57154 23.4667 2.49511 23.3231C2.41867 23.1794 2.37226 23.0217 2.35868 22.8595C2.3451 22.6974 2.36464 22.5342 2.41612 22.3798C2.4676 22.2254 2.54994 22.0831 2.65813 21.9616C2.76632 21.84 2.8981 21.7418 3.04547 21.6727C3.19283 21.6037 3.35269 21.5654 3.51533 21.5601C3.67797 21.5547 3.83999 21.5826 3.99154 21.6418C4.14309 21.7011 4.281 21.7906 4.39689 21.9048L8.52489 25.5768C8.64279 25.6814 8.73893 25.8082 8.80781 25.95C8.87668 26.0918 8.91695 26.2458 8.92631 26.4031C8.93567 26.5605 8.91394 26.7181 8.86236 26.8671C8.81078 27.016 8.73036 27.1533 8.62569 27.2712Z" fill="#9698A4"/>
<path fill-rule="evenodd" clip-rule="evenodd" d="M6.76833 27.12C6.86288 27.2461 6.98133 27.3523 7.11693 27.4326C7.25253 27.5129 7.40262 27.5657 7.55862 27.5879C7.71462 27.6102 7.87349 27.6016 8.02614 27.5625C8.1788 27.5234 8.32226 27.4546 8.44833 27.36L13.2483 23.76C13.5029 23.569 13.6713 23.2848 13.7163 22.9697C13.7613 22.6547 13.6793 22.3346 13.4883 22.08C13.2974 21.8254 13.0131 21.6571 12.698 21.6121C12.383 21.5671 12.0629 21.6491 11.8083 21.84L7.00833 25.44C6.75372 25.631 6.58539 25.9152 6.54039 26.2303C6.49538 26.5454 6.57737 26.8654 6.76833 27.12ZM24.0003 15.6C24.3186 15.6 24.6238 15.7264 24.8489 15.9515C25.0739 16.1765 25.2003 16.4817 25.2003 16.8V25.2C25.2003 25.5183 25.0739 25.8235 24.8489 26.0485C24.6238 26.2736 24.3186 26.4 24.0003 26.4C23.6821 26.4 23.3768 26.2736 23.1518 26.0485C22.9268 25.8235 22.8003 25.5183 22.8003 25.2V16.8C22.8003 16.4817 22.9268 16.1765 23.1518 15.9515C23.3768 15.7264 23.6821 15.6 24.0003 15.6Z" fill="#9698A4"/>
<path fill-rule="evenodd" clip-rule="evenodd" d="M32.4003 25.2C32.4003 25.5183 32.2739 25.8235 32.0488 26.0485C31.8238 26.2736 31.5186 26.4 31.2003 26.4H24.0003C23.682 26.4 23.3768 26.2736 23.1518 26.0485C22.9267 25.8235 22.8003 25.5183 22.8003 25.2C22.8003 24.8817 22.9267 24.5765 23.1518 24.3515C23.3768 24.1264 23.682 24 24.0003 24H31.2003C31.5186 24 31.8238 24.1264 32.0488 24.3515C32.2739 24.5765 32.4003 24.8817 32.4003 25.2Z" fill="#9698A4"/>
</svg>
